<svg width="20" height="20" viewBox="0 0 20 20" fill="none" xmlns="http://www.w3.org/2000/svg">
<path fill-rule="evenodd" clip-rule="evenodd" d="M10 0.019989C4.49002 0.019989 0.0200195 4.48999 0.0200195 9.99999C0.0200195 15.51 4.49002 19.98 10 19.98C15.51 19.98 19.98 15.51 19.98 9.99999C19.98 4.48999 15.51 0.019989 10 0.019989ZM9.48002 15.88V11.74H6.82002C6.45002 11.74 6.20002 11.34 6.38002 11.01L10.06 3.83999C10.29 3.36999 11 3.53999 11 4.06999V8.25999H13.54C13.91 8.25999 14.15 8.64999 13.99 8.97999L10.43 16.1C10.19 16.58 9.48002 16.41 9.48002 15.88Z" fill="white"/>
</svg>
