<svg width="335" height="337" viewBox="0 0 335 337" fill="none" xmlns="http://www.w3.org/2000/svg">
<path d="M316.254 168.5C316.254 165.276 316.147 162.017 315.936 158.765L334.044 142.193L332.997 136.768C331.673 129.907 329.909 123.065 327.753 116.432C325.599 109.799 323.004 103.227 320.041 96.8947L317.699 91.8911L293.319 89.1286C289.853 83.6477 286.018 78.3775 281.863 73.3844L286.773 49.3251L282.739 45.5523C277.637 40.7816 272.188 36.2828 266.542 32.1815C260.899 28.0809 254.936 24.2877 248.82 20.9085L243.984 18.2368L222.657 30.3214C216.617 27.9098 210.406 25.8931 204.099 24.2963L193.945 1.97724L188.462 1.29732C181.526 0.436389 174.474 0 167.5 0C160.526 0 153.474 0.436389 146.537 1.29732L141.055 1.97724L130.9 24.2963C124.594 25.8937 118.383 27.9098 112.343 30.3214L91.016 18.2368L86.1802 20.9085C80.0642 24.2877 74.1009 28.0803 68.4581 32.1809C62.812 36.2828 57.3628 40.7816 52.261 45.5523L48.2269 49.3251L53.1371 73.3844C48.9805 78.3788 45.1458 83.6477 41.6811 89.1293L17.3006 91.8911L14.9587 96.8947C11.9968 103.224 9.40212 109.797 7.2465 116.431C5.09023 123.067 3.32624 129.91 2.0026 136.769L0.956055 142.193L19.0639 158.765C18.8526 162.017 18.746 165.276 18.746 168.5C18.746 171.725 18.8526 174.983 19.0639 178.235L0.956713 194.807L2.00326 200.231C3.3269 207.091 5.09023 213.933 7.24716 220.568C9.40212 227.202 11.9974 233.775 14.9593 240.105L17.3012 245.109L41.6817 247.871C45.1472 253.352 48.9812 258.621 53.1377 263.616L48.2276 287.675L52.2617 291.448C57.3634 296.218 62.8127 300.717 68.4581 304.818C74.1015 308.919 80.0648 312.712 86.1809 316.092L91.0167 318.763L112.344 306.679C118.385 309.09 124.595 311.107 130.901 312.704L141.055 335.021L146.537 335.702C153.472 336.564 160.524 337 167.5 337C174.476 337 181.528 336.564 188.463 335.702L193.945 335.021L204.099 312.704C210.406 311.106 216.618 309.09 222.657 306.679L243.984 318.763L248.82 316.092C254.936 312.712 260.899 308.92 266.542 304.819C272.188 300.717 277.637 296.218 282.739 291.448L286.773 287.675L281.863 263.616C286.018 258.622 289.853 253.352 293.319 247.871L317.699 245.109L320.041 240.105C323.004 233.774 325.598 227.201 327.753 220.569C329.908 213.935 331.673 207.092 332.997 200.232L334.044 194.808L315.936 178.235C316.147 174.983 316.254 171.725 316.254 168.5ZM295.878 155.711C296.296 159.964 296.508 164.267 296.508 168.5C296.508 172.733 296.296 177.036 295.878 181.288L295.395 186.204L312.475 201.835C311.49 206.099 310.317 210.329 308.973 214.468C307.629 218.605 306.091 222.716 304.382 226.745L281.383 229.351L278.886 233.614C274.584 240.954 269.525 247.907 263.849 254.278L260.558 257.972L265.193 280.684C261.892 283.553 258.457 286.287 254.935 288.845C251.414 291.402 247.754 293.825 244.004 296.078L223.87 284.671L219.338 286.662C211.536 290.09 203.356 292.746 195.023 294.556L190.184 295.608L180.596 316.681C171.878 317.443 163.123 317.443 154.404 316.681L144.817 295.608L139.977 294.556C131.646 292.746 123.464 290.09 115.662 286.662L111.13 284.671L90.9963 296.078C87.2465 293.825 83.5849 291.402 80.0648 288.844C76.5434 286.285 73.1089 283.553 69.8074 280.684L74.4425 257.972L71.1515 254.278C65.4738 247.905 60.4148 240.953 56.1155 233.614L53.6176 229.351L30.6186 226.745C28.9093 222.717 27.3711 218.605 26.0264 214.467C24.6816 210.328 23.5094 206.099 22.5247 201.836L39.6057 186.204L39.1226 181.288C38.704 177.036 38.4921 172.733 38.4921 168.5C38.4921 164.267 38.704 159.964 39.122 155.711L39.6051 150.796L22.5241 135.165C23.5087 130.901 24.681 126.673 26.0257 122.533C27.3704 118.396 28.9086 114.284 30.618 110.256L53.6169 107.65L56.1148 103.387C60.4142 96.0483 65.4731 89.0957 71.1508 82.723L74.4418 79.0285L69.8067 56.3165C73.1083 53.4481 76.5428 50.7139 80.0648 48.1561C83.5856 45.5983 87.2458 43.1762 90.9956 40.9225L111.129 52.3298L115.662 50.3387C123.464 46.9108 131.645 44.2549 139.976 42.4449L144.816 41.3931L154.404 20.3194C163.123 19.5585 171.876 19.5585 180.596 20.3194L190.183 41.3931L195.023 42.4449C203.355 44.2549 211.536 46.9108 219.337 50.3387L223.87 52.3298L244.004 40.9225C247.753 43.1762 251.415 45.5983 254.935 48.1568C258.456 50.7152 261.891 53.4481 265.192 56.3165L260.557 79.0285L263.848 82.723C269.524 89.0937 274.584 96.0457 278.885 103.387L281.382 107.65L304.381 110.256C306.091 114.284 307.629 118.396 308.973 122.534C310.317 126.671 311.49 130.902 312.474 135.165L295.394 150.796L295.878 155.711Z" fill="white" fill-opacity="0.5"/>
<path d="M167.5 59.2383C107.253 59.2383 58.2383 108.253 58.2383 168.5C58.2383 228.747 107.253 277.762 167.5 277.762C227.747 277.762 276.762 228.747 276.762 168.5C276.762 108.253 227.747 59.2383 167.5 59.2383ZM167.5 258.016C118.141 258.016 77.9844 217.859 77.9844 168.5C77.9844 119.141 118.141 78.9844 167.5 78.9844C216.859 78.9844 257.016 119.141 257.016 168.5C257.016 217.859 216.859 258.016 167.5 258.016Z" fill="white" fill-opacity="0.5"/>
<path d="M167.5 129.008C145.724 129.008 128.008 146.724 128.008 168.5C128.008 190.276 145.724 207.992 167.5 207.992C189.276 207.992 206.992 190.276 206.992 168.5C206.992 146.724 189.276 129.008 167.5 129.008ZM167.5 188.246C156.612 188.246 147.754 179.388 147.754 168.5C147.754 157.612 156.612 148.754 167.5 148.754C178.388 148.754 187.246 157.612 187.246 168.5C187.246 179.388 178.388 188.246 167.5 188.246Z" fill="white" fill-opacity="0.5"/>
</svg>
