<svg width="335" height="337" fill="none" xmlns="http://www.w3.org/2000/svg"><path d="M316.254 168.5c0-3.224-.107-6.483-.318-9.735l18.108-16.572-1.047-5.425a170.602 170.602 0 00-5.244-20.336 170.587 170.587 0 00-7.712-19.537l-2.342-5.004-24.38-2.762a149.867 149.867 0 00-11.456-15.745l4.91-24.059-4.034-3.773a170.634 170.634 0 00-16.197-13.37 170.643 170.643 0 00-17.722-11.274l-4.836-2.671-21.327 12.084a148.162 148.162 0 00-18.558-6.025L193.945 1.977l-5.483-.68A170.802 170.802 0 00167.5 0c-6.974 0-14.026.436-20.963 1.297l-5.482.68-10.155 22.32a148.3 148.3 0 00-18.557 6.024L91.016 18.237l-4.836 2.672A170.618 170.618 0 0068.458 32.18a170.695 170.695 0 00-16.197 13.371l-4.034 3.773 4.91 24.06a149.524 149.524 0 00-11.456 15.744l-24.38 2.762-2.342 5.004a170.783 170.783 0 00-7.712 19.536 170.759 170.759 0 00-5.244 20.338l-1.047 5.424 18.108 16.572a150.432 150.432 0 00-.318 9.735c0 3.225.107 6.483.318 9.735L.957 194.807l1.046 5.424a170.518 170.518 0 005.244 20.337 170.722 170.722 0 007.712 19.537l2.342 5.004 24.38 2.762c3.466 5.481 7.3 10.75 11.457 15.745l-4.91 24.059 4.034 3.773a170.717 170.717 0 0016.196 13.37 170.761 170.761 0 0017.723 11.274l4.836 2.671 21.327-12.084a148.385 148.385 0 0018.557 6.025l10.154 22.317 5.482.681A170.571 170.571 0 00167.5 337c6.976 0 14.028-.436 20.963-1.298l5.482-.681 10.154-22.317a148.404 148.404 0 0018.558-6.025l21.327 12.084 4.836-2.671a170.71 170.71 0 0017.722-11.273 170.85 170.85 0 0016.197-13.371l4.034-3.773-4.91-24.059a149.96 149.96 0 0011.456-15.745l24.38-2.762 2.342-5.004a170.73 170.73 0 007.712-19.536 170.908 170.908 0 005.244-20.337l1.047-5.424-18.108-16.573c.211-3.252.318-6.51.318-9.735zm-20.376-12.789c.418 4.253.63 8.556.63 12.789 0 4.233-.212 8.536-.63 12.788l-.483 4.916 17.08 15.631a151.082 151.082 0 01-3.502 12.633 150.891 150.891 0 01-4.591 12.277l-22.999 2.606-2.497 4.263a129.813 129.813 0 01-15.037 20.664l-3.291 3.694 4.635 22.712a150.416 150.416 0 01-10.258 8.161 150.818 150.818 0 01-10.931 7.233l-20.134-11.407-4.532 1.991a128.245 128.245 0 01-24.315 7.894l-4.839 1.052-9.588 21.073c-8.718.762-17.473.762-26.192 0l-9.587-21.073-4.84-1.052a128.292 128.292 0 01-24.315-7.894l-4.532-1.991-20.134 11.407a150.358 150.358 0 01-10.931-7.234 150.972 150.972 0 01-10.258-8.16l4.635-22.712-3.29-3.694a129.67 129.67 0 01-15.037-20.664l-2.497-4.263-23-2.606a150.794 150.794 0 01-4.592-12.278 150.721 150.721 0 01-3.501-12.631l17.08-15.632-.482-4.916c-.419-4.252-.63-8.555-.63-12.788 0-4.233.211-8.536.629-12.789l.483-4.915-17.08-15.631a150.743 150.743 0 013.5-12.632 150.875 150.875 0 014.593-12.277l22.999-2.606 2.498-4.263A129.676 129.676 0 0171.15 82.723l3.29-3.695-4.634-22.712a150.68 150.68 0 0110.258-8.16c3.52-2.558 7.18-4.98 10.93-7.233L111.13 52.33l4.533-1.991a128.289 128.289 0 0124.314-7.894l4.84-1.052 9.588-21.074a150.55 150.55 0 0126.192 0l9.587 21.074 4.84 1.052a128.242 128.242 0 0124.314 7.894l4.533 1.99 20.134-11.407a150.57 150.57 0 0110.931 7.235 150.936 150.936 0 0110.257 8.16l-4.635 22.711 3.291 3.695a129.68 129.68 0 0115.037 20.664l2.497 4.263 22.999 2.606c1.71 4.028 3.248 8.14 4.592 12.278a150.544 150.544 0 013.501 12.631l-17.08 15.631.484 4.915z" fill="#FAEEE9"/><path d="M167.5 59.238c-60.247 0-109.262 49.015-109.262 109.262S107.253 277.762 167.5 277.762 276.762 228.747 276.762 168.5 227.747 59.238 167.5 59.238zm0 198.778c-49.359 0-89.516-40.157-89.516-89.516 0-49.359 40.157-89.516 89.516-89.516 49.359 0 89.516 40.157 89.516 89.516 0 49.359-40.157 89.516-89.516 89.516z" fill="#FAEEE9"/><path d="M167.5 129.008c-21.776 0-39.492 17.716-39.492 39.492 0 21.776 17.716 39.492 39.492 39.492 21.776 0 39.492-17.716 39.492-39.492 0-21.776-17.716-39.492-39.492-39.492zm0 59.238c-10.888 0-19.746-8.858-19.746-19.746 0-10.888 8.858-19.746 19.746-19.746 10.888 0 19.746 8.858 19.746 19.746 0 10.888-8.858 19.746-19.746 19.746z" fill="#FAEEE9"/></svg>