<svg xmlns="http://www.w3.org/2000/svg" viewBox="0 0 100 100"><path d="M73.3 17.5C63.5 9.2 42 5 25.9 17 10.8 27.2 10.1 45.7 10.1 45.7c2.6 10.1 12.8 19.8 32.4 15.1-2.3-13.6 2.3-48.1 30.8-43.3z" fill="#00acd2"/><path d="M63.1 50.5c-10.6 8.8-43 22.3-53-4.8-2.4 12.6 4.2 33.6 22.7 41.5 16.4 8 33.4-1.3 33.4-1.3 7.5-7.3 10.9-20.8-3.1-35.4" fill="#c8e9eb"/><path d="M43.9 38.1c13 4.8 40.7 25.6 22.3 47.8 12.1-4.2 26.3-20.3 23.9-40.3-1.2-18.2-16.8-28.1-16.8-28.1-10.1-2.8-23.6 1.2-29.4 20.6" fill="#662d91"/></svg>