<svg xmlns="http://www.w3.org/2000/svg" viewBox="0 0 100 100"><defs><radialGradient id="a" cx="-42.09" cy="-1152.6" r="8.89" gradientTransform="matrix(6.43 0 0 6.43 292.8 7494.4)" gradientUnits="userSpaceOnUse"><stop offset="0" stop-color="#2b2b2b"/><stop offset="1" stop-color="#838383"/></radialGradient><radialGradient id="b" cx="-39.73" cy="-1163.83" r="8.59" gradientTransform="matrix(6.43 0 0 6.43 292.8 7494.4)" gradientUnits="userSpaceOnUse"><stop offset="0" stop-color="#fff" stop-opacity=".8"/><stop offset="1" stop-color="#fff" stop-opacity=".2"/></radialGradient><radialGradient id="d" cx="126.66" cy="-1070.54" r="2.81" gradientTransform="matrix(5.05 -3.98 11.31 14.38 11530.58 15934.24)" gradientUnits="userSpaceOnUse"><stop offset="0" stop-color="#fff" stop-opacity=".4"/><stop offset="1" stop-color="#fff" stop-opacity="0"/></radialGradient><linearGradient id="c" x1="-37.89" y1="-1157.2" x2="-33.84" y2="-1161.96" gradientTransform="matrix(6.43 0 0 6.43 292.8 7494.4)" gradientUnits="userSpaceOnUse"><stop offset="0" stop-color="#227716"/><stop offset="1" stop-color="#20b228"/></linearGradient></defs><path d="M73 86.2l-47.1-1.4c-5.7-.2-12.3-7-12.2-12.6l.2-47.4c.1-5.7 6.6-11.1 12.3-11l46.5 1.7c5.6.1 12.1 5.3 12 11v48.3A11.4 11.4 0 0173 86.2z" stroke-width=".22" fill="url(#a)" stroke-miterlimit="10" stroke="#2c2c2c"/><path d="M17.8 68.4l7.5-1.8a11.6 11.6 0 002.5 4c1.1.9 4.1 1.4 6.1 1.2a3.4 3.4 0 003-3.2 2.7 2.7 0 00-1.7-2.7 25.9 25.9 0 00-4.3-1.5c-1.8-.5-5.1-1.2-7.7-3S20 55.6 20 54.2a10.5 10.5 0 011.2-5c1-1.6 4-4.9 9.9-4.9s8.4 1.9 9.8 3 3.5 5 3.5 5l-6.8 2.5c-1.2-3.4-3.3-4.6-6.3-4.6s-3.6 1.9-3.6 3 .6 2.4 3.4 3.2 7.5 1.9 9.7 3.3a9.7 9.7 0 014.3 7.8 9.3 9.3 0 01-2.5 6.6c-1.2 1.3-4 4.2-10 4.2S21 75.8 17.8 68.4zm52.1-.8S71 53.7 58 53.7s-11.4 12-11.4 12.9c0 3.5 2.1 12.4 12 12.4s11.3-8.4 11.3-8.4l-6.8-.8c-.3.9-1 4-4.2 4a4.4 4.4 0 01-4.4-3.4 10.5 10.5 0 01-.2-2.8zm-15.7-4s-.2-5.3 4.4-5.3 4.3 5.3 4.3 5.3z" fill="#fff" stroke-width=".11" stroke-miterlimit="10" stroke="#2c2c2c"/><path d="M16.3 29.7v23.5s2.8 12.4 11.4 12.6 41.1 1.6 44.1 1.4 10.6-4.2 10.6-12V32c0-4.5-2.6-13.2-12.5-13.7s-37.9-1.2-41-1.2c-5.2 0-12.6 2-12.6 12.6z" fill="url(#b)"/><path d="M46.4 33.3l13.7 17.2 32.2-26.8-4.5-9-26.7 22.8-9.5-10.8z" stroke="#0c0000" stroke-width=".15" fill="url(#c)" stroke-miterlimit="10"/><path d="M47.2 33.1l13.3 12.1L82.4 28l-2.6-5.8-18.8 16-9.4-10.7z" fill="url(#d)"/></svg>