<svg xmlns="http://www.w3.org/2000/svg" viewBox="0 0 100 100"><defs><style>.d,.f{stroke:#000}.d{stroke-linejoin:round;stroke-width:.87px;fill-rule:evenodd;fill:#19aeff}.f{fill:none;stroke-miterlimit:5.58;stroke-width:1.31px}</style></defs><path d="M12.9 58.3l30.5 29 45.1-21.1-38.7-18.1z" stroke-linejoin="round" stroke-width=".87" fill-rule="evenodd" stroke="#000" fill="#afafde"/><path d="M11.5 18.5l1.4 39.8 36.9-10.2-1.2-33.4z" fill="#353564" stroke-linejoin="round" stroke-width=".87" fill-rule="evenodd" stroke="#000"/><path d="M48.6 14.7l38.3 4.4 1.6 47.1-38.7-18.1z" fill="#e9e9ff" stroke-linejoin="round" stroke-width=".87" fill-rule="evenodd" stroke="#000"/><path class="d" d="M11.5 18.5l29.7 7.7 45.7-7.1-38.3-4.4z"/><path d="M41.2 26.2l2.2 61.1 45.1-21.1-1.6-47.1z" fill="#0084c8" stroke-linejoin="round" stroke-width=".87" fill-rule="evenodd" stroke="#000"/><path class="d" d="M11.5 18.5l29.7 7.7 2.2 61.1-30.5-29z"/><path class="f" d="M14.5 30.2s3.9-8 11.9.2c3.8 4 6.6 8.5 10.2 2.5"/><path class="f" d="M14.5 35.5s3.9-8 11.9.2c3.8 4 6.6 8.4 10.2 2.5"/><path class="f" d="M14.5 40.7s3.9-8 11.9.2c3.8 4 6.6 8.4 10.2 2.5"/></svg>