<svg xmlns="http://www.w3.org/2000/svg" viewBox="0 0 100 100"><defs><linearGradient id="a" x1="12.68" y1="286.43" x2="48.14" y2="286.43" gradientTransform="matrix(1 0 0 -1 0 342)" gradientUnits="userSpaceOnUse"><stop offset=".26" stop-color="#f97a12"/><stop offset=".46" stop-color="#b07b58"/><stop offset=".72" stop-color="#577bae"/><stop offset=".91" stop-color="#1e7ce5"/><stop offset="1" stop-color="#087cfa"/></linearGradient><linearGradient id="b" x1="39.91" y1="303.02" x2="98.46" y2="270.62" gradientTransform="matrix(1 0 0 -1 0 342)" gradientUnits="userSpaceOnUse"><stop offset="0" stop-color="#f97a12"/><stop offset=".07" stop-color="#cb7a3e"/><stop offset=".15" stop-color="#9e7b6a"/><stop offset=".24" stop-color="#757b91"/><stop offset=".33" stop-color="#537bb1"/><stop offset=".43" stop-color="#387ccc"/><stop offset=".54" stop-color="#237ce0"/><stop offset=".66" stop-color="#147cef"/><stop offset=".79" stop-color="#0b7cf7"/><stop offset="1" stop-color="#087cfa"/></linearGradient><linearGradient id="c" x1="80.81" y1="283.37" x2="64.51" y2="332.07" gradientTransform="matrix(1 0 0 -1 0 342)" gradientUnits="userSpaceOnUse"><stop offset="0" stop-color="#fe315d"/><stop offset=".08" stop-color="#cb417e"/><stop offset=".16" stop-color="#9e4e9b"/><stop offset=".25" stop-color="#755bb4"/><stop offset=".34" stop-color="#5365ca"/><stop offset=".44" stop-color="#386ddb"/><stop offset=".54" stop-color="#2374e9"/><stop offset=".66" stop-color="#1478f3"/><stop offset=".79" stop-color="#0b7bf8"/><stop offset="1" stop-color="#087cfa"/></linearGradient><linearGradient id="d" x1="23.47" y1="312.2" x2="72.36" y2="231.33" gradientTransform="matrix(1 0 0 -1 0 342)" gradientUnits="userSpaceOnUse"><stop offset="0" stop-color="#fe315d"/><stop offset=".04" stop-color="#f63462"/><stop offset=".1" stop-color="#df3a71"/><stop offset=".17" stop-color="#c24383"/><stop offset=".29" stop-color="#ad4a91"/><stop offset=".55" stop-color="#755bb4"/><stop offset=".92" stop-color="#1d76ed"/><stop offset="1" stop-color="#087cfa"/></linearGradient></defs><path fill="url(#a)" d="M31.1 71.4L12.7 56.8l9.1-17.1L48.1 50l-17 21.4z"/><path fill="url(#b)" d="M88.2 32.2l-1.4 44.2-29.4 11.8-17.7-11.4L65.6 50 54.3 25.2 64.4 13l23.8 19.2z"/><path fill="url(#c)" d="M88.2 32.2L64.9 59.7 54.3 25.2 64.4 13l23.8 19.2z"/><path fill="url(#d)" d="M48.6 75.2L17.9 86.3l4.9-17.2 6.5-21.2L11.8 42l11-30.2 24 3 23.6 26.9-21.8 33.5z"/><path d="M26.8 26.5h47.1v47.14H26.8z"/><path d="M31.1 64.8h17.7v2.95H31.1zm12.8-28.5v-3.7h-9.8v3.7h2.8v12.3h-2.8v3.6h9.8v-3.6h-2.7V36.3h2.7zm9.4 16.2a6.9 6.9 0 01-3.8-.9 10.6 10.6 0 01-2.6-2l2.8-3.1a5 5 0 001.6 1.4 3.3 3.3 0 001.9.6 2.4 2.4 0 001.9-.8 3.4 3.4 0 00.7-2.5V32.7h4.3v12.7a9.7 9.7 0 01-.4 3.1 7.4 7.4 0 01-1.4 2.2 6.7 6.7 0 01-2.2 1.3 8.2 8.2 0 01-2.8.5" fill="#fff"/></svg>