<svg xmlns="http://www.w3.org/2000/svg" viewBox="0 0 100 100"><path d="M39.2 9.5a8.1 8.1 0 000 16.2h8.1v-8.1a8.1 8.1 0 00-8.1-8.1m0 21.6H17.7a8.1 8.1 0 100 16.2h21.5a8.1 8.1 0 000-16.2z" fill-rule="evenodd" fill="#36c5f0"/><path d="M90.4 39.2a8.1 8.1 0 00-16.2 0v8.1h8.1a8.1 8.1 0 008.1-8.1zm-21.6 0V17.6a8 8 0 00-8-8.1 8.1 8.1 0 00-8.1 8.1v21.6a8.1 8.1 0 008.1 8.1 8 8 0 008-8.1z" fill="#2eb67d" fill-rule="evenodd"/><path d="M60.8 90.5a8.1 8.1 0 000-16.2h-8.1v8.1a8.1 8.1 0 008.1 8.1zm0-21.6h21.5a8.1 8.1 0 100-16.2H60.8a8.1 8.1 0 100 16.2z" fill="#ecb22e" fill-rule="evenodd"/><path d="M9.6 60.8a8.1 8.1 0 0016.2 0v-8.1h-8.1a8.1 8.1 0 00-8.1 8.1zm21.6 0v21.6a8 8 0 008 8.1 8.1 8.1 0 008.1-8.1V60.8a8.1 8.1 0 00-8.1-8.1 8 8 0 00-8 8.1" fill="#e01e5a" fill-rule="evenodd"/></svg>